<?xml version="1.0" standalone="no"?>
<!DOCTYPE svg PUBLIC "-//W3C//DTD SVG 20010904//EN"
 "http://www.w3.org/TR/2001/REC-SVG-20010904/DTD/svg10.dtd">
<svg version="1.0" xmlns="http://www.w3.org/2000/svg"
 width="800.000000pt" height="800.000000pt" viewBox="0 0 800.000000 800.000000"
 preserveAspectRatio="xMidYMid meet">

<g transform="translate(0.000000,800.000000) scale(0.100000,-0.100000)"
fill="#000000" stroke="none">
<path d="M5876 4354 c-248 -38 -432 -125 -595 -279 -126 -120 -216 -270 -263
-440 -19 -69 -22 -105 -22 -270 0 -162 3 -203 21 -275 49 -194 135 -342 282
-483 155 -150 332 -253 716 -417 392 -169 517 -250 577 -375 24 -51 28 -72 28
-146 0 -76 -4 -93 -30 -147 -75 -148 -240 -225 -485 -224 -214 1 -381 64 -523
196 -64 60 -170 188 -200 242 -8 14 -142 -59 -559 -306 l-62 -36 40 -69 c65
-112 133 -197 238 -298 201 -192 430 -307 736 -370 96 -19 141 -22 355 -22
198 0 262 4 335 18 516 105 833 403 900 847 36 236 1 489 -94 678 -136 270
-386 458 -911 685 -374 162 -458 207 -537 289 -65 67 -87 126 -88 233 0 79 4
97 28 147 55 112 155 170 308 176 207 9 349 -70 465 -258 l36 -59 57 36 c368
235 521 337 521 347 0 11 -68 119 -112 176 -87 114 -269 261 -392 315 -206 91
-523 128 -770 89z"/>
<path d="M3607 4323 c-4 -3 -7 -608 -7 -1343 0 -1304 0 -1339 -20 -1415 -45
-177 -140 -251 -335 -262 -103 -6 -190 11 -259 52 -63 37 -145 127 -206 228
-30 49 -57 90 -62 93 -7 4 -574 -332 -602 -357 -5 -4 10 -43 33 -86 124 -230
340 -423 575 -514 168 -65 307 -89 513 -89 357 0 630 96 824 289 143 144 224
309 275 561 16 77 18 210 21 1468 l4 1382 -374 0 c-205 0 -377 -3 -380 -7z"/>
</g>
</svg>
